<?xml version="1.0" encoding="UTF-8" standalone="no"?>
<svg xmlns="http://www.w3.org/2000/svg" viewBox="0 0 24 24" id="edit_relationship" width="100%" height="100%">
 <rect id="svg_3" height="25.124998" width="24.499998" y="-0.374998" x="-0.1875" stroke-opacity="null" stroke-width="null" stroke="null" fill="#66daf4"/>
  <path id="svg_1" d="m19.8,19.4l-1.3,0l0,-2.8l1.3,0c0.3,0 0.5,-0.2 0.5,-0.4l0,-12c0,-0.3 -0.2,-0.5 -0.5,-0.5l-12,0c-0.2,0 -0.4,0.2 -0.4,0.5l0,1.3l-2.8,0l0,-1.3c0,-1.8 1.4,-3.3 3.2,-3.3l12,0c1.8,0 3.3,1.5 3.3,3.3l0,12c0,1.8 -1.5,3.2 -3.3,3.2zm-5,-12l-12,0c-1,0 -1.9,0.8 -1.9,1.8l0,12c0,1 0.9,1.9 1.9,1.9l12,0c1,0 1.8,-0.9 1.8,-1.9l0,-12c0,-1 -0.8,-1.8 -1.8,-1.8zm-8,11.8c-0.1,0 -0.1,0 -0.2,0.1l-2.1,0.5c-0.2,0 -0.3,-0.1 -0.3,-0.3l0.5,-2.1s0.1,-0.1 0.1,-0.2c0.1,-0.1 0.2,-0.1 0.3,0l1.7,1.7c0.1,0.1 0.1,0.3 0,0.3zm5.1,-5.1l-4.3,4.3c-0.1,0.1 -0.2,0.1 -0.3,0l-1.7,-1.7c-0.1,-0.1 -0.1,-0.2 0,-0.3l4.3,-4.3c0.1,-0.1 0.2,-0.1 0.3,0l1.7,1.7l0,0.3zm1.3,-1.3l-0.5,0.4c-0.1,0.1 -0.2,0.1 -0.3,0l-1.7,-1.7c-0.1,-0.1 -0.1,-0.1 0,-0.2l0.5,-0.5c0.3,-0.3 0.8,-0.3 1.1,0l0.9,0.9c0.3,0.3 0.3,0.8 0,1.1z"/>
</svg>